<svg version="1.0" class="hero__image" xmlns="http://www.w3.org/2000/svg" width="3540.000000pt" height="3770.000000pt" viewBox="0 0 3540.000000 3770.000000" preserveAspectRatio="xMidYMid meet">
<g transform="translate(0.000000,3770.000000) scale(0.100000,-0.100000)" fill="#212121" stroke="none">
<path d="M5147 28708 c-2116 -4946 -3847 -8996 -3847 -9000 0 -5 3465 -8 7700
-8 4235 0 7700 3 7700 8 0 15 -7693 17992 -7700 17992 -4 0 -1738 -4047 -3853
-8992z m6183 -1554 c1279 -2989 2327 -5440 2328 -5445 2 -5 -1772 -9 -4658 -9
-2886 0 -4660 4 -4658 9 18 52 4654 10881 4658 10881 3 0 1051 -2446 2330
-5436z"></path>
<path d="M22547 28708 c-2116 -4946 -3847 -8996 -3847 -9000 0 -5 3465 -8
7700 -8 4235 0 7700 3 7700 8 0 15 -7693 17992 -7700 17992 -4 0 -1738 -4047
-3853 -8992z m6183 -1554 c1279 -2989 2327 -5440 2328 -5445 2 -5 -1772 -9
-4658 -9 -2886 0 -4660 4 -4658 9 18 52 4654 10881 4658 10881 3 0 1051 -2446
2330 -5436z"></path>
<path d="M575 18270 l-570 -570 8845 -8845 c4865 -4865 8850 -8845 8855 -8845
6 0 3987 3977 8848 8838 l8836 8838 -569 569 -570 570 -6653 -6652 -6652
-6652 -125 122 c-738 721 -1725 1165 -2773 1248 -194 15 -697 6 -872 -15 -658
-82 -1256 -286 -1805 -616 -295 -178 -618 -429 -840 -654 l-75 -76 -6655 6655
-6655 6655 -570 -570z"></path>
<path d="M11855 18394 c-117 -10 -390 -47 -510 -70 -1328 -256 -2472 -1099
-3118 -2299 -320 -595 -505 -1274 -524 -1927 l-6 -198 705 0 705 0 6 133 c21
418 154 885 360 1267 239 442 593 834 1002 1107 394 265 804 421 1305 500 166
26 674 26 840 0 166 -26 294 -53 430 -92 799 -228 1477 -776 1877 -1515 206
-382 339 -849 360 -1267 l6 -133 705 0 705 0 -6 198 c-13 448 -108 928 -269
1362 -549 1480 -1836 2571 -3378 2864 -296 57 -420 68 -795 71 -192 1 -372 1
-400 -1z"></path>
<path d="M22855 18394 c-117 -10 -390 -47 -510 -70 -1328 -256 -2472 -1099
-3118 -2299 -320 -595 -505 -1274 -524 -1927 l-6 -198 705 0 705 0 6 163 c18
459 160 949 395 1362 426 747 1145 1287 1977 1485 262 63 381 75 715 75 334 0
453 -12 715 -75 832 -198 1551 -738 1977 -1485 235 -413 377 -903 395 -1362
l6 -163 705 0 705 0 -6 198 c-13 448 -108 928 -269 1362 -549 1480 -1836 2571
-3378 2864 -296 57 -420 68 -795 71 -192 1 -372 1 -400 -1z"></path>
<path d="M12001 14885 c-297 -67 -526 -233 -674 -488 -51 -88 -99 -222 -118
-331 -19 -113 -7 -333 25 -441 53 -178 129 -307 257 -434 126 -127 254 -202
434 -258 84 -25 102 -27 275 -27 173 0 191 2 275 27 180 56 308 131 434 258
127 126 202 254 258 434 25 84 27 102 27 275 0 173 -2 191 -27 275 -56 180
-131 308 -258 434 -127 128 -256 204 -434 257 -78 23 -112 27 -250 30 -114 3
-178 -1 -224 -11z"></path>
<path d="M23001 14885 c-297 -67 -526 -233 -674 -488 -51 -88 -99 -222 -118
-331 -19 -113 -7 -333 25 -441 53 -178 129 -307 257 -434 126 -127 254 -202
434 -258 84 -25 102 -27 275 -27 173 0 191 2 275 27 180 56 308 131 434 258
127 126 202 254 258 434 25 84 27 102 27 275 0 173 -2 191 -27 275 -56 180
-131 308 -258 434 -127 128 -256 204 -434 257 -78 23 -112 27 -250 30 -114 3
-178 -1 -224 -11z"></path>
</g>
</svg>